<svg width="89" height="87" viewBox="0 0 89 87" fill="none" xmlns="http://www.w3.org/2000/svg">
<g clip-path="url(#clip0)">
<path d="M79.9274 84.1992H77.1282C78.8777 82.9738 79.9274 80.8732 79.9274 78.5976C79.9274 76.3219 78.7028 74.2213 77.1282 72.996H79.9274C83.0765 72.996 85.5258 75.4467 85.5258 78.5976C85.5258 81.5734 83.0765 84.1992 79.9274 84.1992ZM3.2992 78.5976C3.2992 75.4467 5.92346 72.996 8.89761 72.996H11.6968C9.94732 74.2213 8.89761 76.3219 8.89761 78.5976C8.89761 80.8732 10.1223 82.9738 11.6968 84.1992H9.07257C5.92346 84.1992 3.2992 81.5734 3.2992 78.5976ZM11.8718 47.6137H37.4145V57.4165V61.6177V68.6197C37.4145 69.1449 37.5895 69.495 37.5895 70.0201H34.2654C34.4404 69.495 34.6153 69.1449 34.6153 68.6197V57.4165C34.6153 55.1408 32.6909 53.2153 30.4165 53.2153H19.0447C16.7704 53.2153 14.8459 55.1408 14.8459 57.4165V68.6197C14.8459 69.1449 15.0209 69.495 15.0209 70.0201H11.8718V47.6137ZM3.2992 47.6137V42.0121H45.8121V47.6137H40.2137V44.8129H9.07257V47.6137H3.2992ZM13.2714 31.8592V39.2113H10.4722C10.4722 36.4105 11.5219 33.7847 13.2714 31.8592ZM16.0706 36.4105H18.8698V39.2113H16.0706V36.4105ZM18.8698 33.6097H16.0706V29.4085C16.9453 28.8833 17.8201 28.5332 18.8698 28.1831V33.6097ZM24.6431 25.2072C25.3429 25.2072 26.0427 25.0322 26.7425 24.8571L27.4423 26.7827V39.2113H21.8439V26.7827L22.5437 24.8571C23.0686 25.0322 23.7684 25.2072 24.6431 25.2072ZM17.6451 12.6036C17.1203 12.6036 16.7704 12.6036 16.4205 12.7787C16.2455 12.0785 16.0706 11.3783 16.0706 10.6781C16.0706 6.30181 19.5696 2.80081 23.9433 2.80081H25.168C29.5417 2.80081 33.0408 6.30181 33.0408 10.6781C33.0408 11.3783 32.8658 12.0785 32.6909 12.7787C32.341 12.6036 31.9911 12.6036 31.6412 12.6036H30.2416H28.8419C26.0427 12.6036 26.0427 8.57747 26.0427 8.40242H24.6431H23.2435C23.2435 10.8531 24.4682 15.4044 28.8419 15.4044V18.2052C28.8419 20.4809 26.9175 22.4064 24.6431 22.4064C22.3688 22.4064 20.4443 20.4809 20.4443 18.2052V13.829C20.4443 12.7787 20.9692 11.7284 22.0189 11.3783L22.5437 11.2032L21.3191 8.75252H20.6193C19.0447 9.62777 17.995 11.0282 17.6451 12.6036ZM16.0706 16.8048C16.0706 16.1046 16.7704 15.4044 17.4702 15.4044V18.2052C16.7704 18.2052 16.0706 17.6801 16.0706 16.8048ZM31.6412 18.2052V15.4044C32.341 15.4044 33.0408 16.1046 33.0408 16.8048C33.0408 17.6801 32.5159 18.2052 31.6412 18.2052ZM30.2416 36.4105H33.0408V39.2113H30.2416V36.4105ZM33.0408 33.6097H30.2416V28.3582C31.2913 28.7083 32.166 29.0584 33.0408 29.5835V33.6097ZM38.8141 39.2113H36.0149V31.6841C37.7644 33.7847 38.8141 36.4105 38.8141 39.2113ZM41.6133 56.0161H43.0129V61.6177H51.5855V56.0161H52.9851C53.6849 56.0161 54.3847 56.7163 54.3847 57.4165V68.6197C54.3847 69.3199 53.6849 70.0201 52.9851 70.0201H41.6133C40.9135 70.0201 40.2137 69.3199 40.2137 68.6197V61.6177V57.4165C40.2137 56.7163 40.9135 56.0161 41.6133 56.0161ZM45.8121 56.0161H48.6113V58.8169H45.8121V56.0161ZM59.9831 78.5976C59.9831 80.8732 58.0587 82.7988 55.7843 82.7988C53.5099 82.7988 51.5855 80.8732 51.5855 78.5976C51.5855 76.3219 53.5099 74.3964 55.7843 74.3964C58.2336 74.3964 59.9831 76.1469 59.9831 78.5976ZM43.0129 78.5976C43.0129 76.3219 41.7883 74.2213 40.2137 72.996H41.6133H51.5855C49.836 74.2213 48.7863 76.3219 48.7863 78.5976C48.7863 80.8732 50.0109 82.9738 51.5855 84.1992H40.2137C41.9632 82.7988 43.0129 80.8732 43.0129 78.5976ZM23.2435 78.5976C23.2435 76.3219 22.0189 74.2213 20.4443 72.996H30.2416H31.6412C29.8916 74.2213 28.8419 76.3219 28.8419 78.5976C28.8419 80.8732 30.0666 82.9738 31.6412 84.1992H20.2694C22.0189 82.7988 23.2435 80.8732 23.2435 78.5976ZM16.0706 74.3964C18.3449 74.3964 20.2694 76.3219 20.2694 78.5976C20.2694 80.8732 18.3449 82.7988 16.0706 82.7988C13.7962 82.7988 11.8718 80.8732 11.8718 78.5976C11.8718 76.1469 13.7962 74.3964 16.0706 74.3964ZM40.2137 78.5976C40.2137 80.8732 38.2893 82.7988 36.0149 82.7988C33.7406 82.7988 31.8161 80.8732 31.8161 78.5976C31.8161 76.3219 33.7406 74.3964 36.0149 74.3964C38.2893 74.3964 40.2137 76.1469 40.2137 78.5976ZM23.2435 56.0161H26.0427V58.8169H23.2435V56.0161ZM17.4702 68.7948V57.5916C17.4702 56.8914 18.17 56.1911 18.8698 56.1911H20.2694V61.7928H28.8419V56.0161H30.2416C30.9414 56.0161 31.6412 56.7163 31.6412 57.4165V68.6197C31.6412 69.3199 30.9414 70.0201 30.2416 70.0201H18.8698C18.17 70.1952 17.4702 69.495 17.4702 68.7948ZM65.7565 78.5976C65.7565 80.8732 66.9811 82.9738 68.5557 84.1992H59.9831C61.7326 82.9738 62.7823 80.8732 62.7823 78.5976C62.7823 76.3219 61.5577 74.2213 59.9831 72.996H68.5557C66.8062 74.2213 65.7565 76.1469 65.7565 78.5976ZM72.7545 82.7988C70.4801 82.7988 68.5557 80.8732 68.5557 78.5976C68.5557 76.3219 70.4801 74.3964 72.7545 74.3964C75.0288 74.3964 76.9533 76.3219 76.9533 78.5976C77.1282 80.8732 75.2038 82.7988 72.7545 82.7988ZM79.9274 70.1952H57.0089C57.1839 69.67 57.1839 69.3199 57.1839 68.7948V57.5916C57.1839 55.3159 55.2594 53.3904 52.9851 53.3904H41.6133C41.0885 53.3904 40.5636 53.5654 40.2137 53.5654V50.4145H48.7863V39.2113H41.6133C41.6133 32.3843 36.7147 26.6077 29.8916 25.3823L29.1918 23.4567C29.8916 22.7565 30.5915 22.0563 30.9414 21.006H31.4662C33.7406 21.006 35.665 19.0805 35.665 16.8048C35.665 15.9296 35.3151 15.0543 34.9652 14.3541C35.4901 13.1288 35.665 11.9034 35.665 10.503C35.665 4.72636 30.7664 -0.175049 24.993 -0.175049H23.7684C17.995 1.49012e-06 13.2714 4.72636 13.2714 10.6781C13.2714 12.0785 13.6213 13.3038 13.9712 14.5292C13.6213 15.0543 13.2714 15.9296 13.2714 16.8048C13.2714 19.0805 15.1958 21.006 17.4702 21.006H17.995C18.3449 21.8813 19.0447 22.7565 19.7445 23.4567L19.0447 25.3823C12.3966 26.6077 7.32306 32.3843 7.32306 39.2113H0.5V50.4145H9.07257V70.0201C4.34891 70.0201 0.5 73.8712 0.5 78.4225C0.5 82.9738 4.34891 86.825 9.07257 86.825H79.9274C84.6511 86.825 88.5 82.9738 88.5 78.4225C88.5 73.8712 84.6511 70.1952 79.9274 70.1952Z" fill="black"/>
<path d="M16.0707 77.1971C16.7705 77.1971 17.4703 77.8974 17.4703 78.5976C17.4703 79.2978 16.7705 79.998 16.0707 79.998C15.3709 79.998 14.6711 79.2978 14.6711 78.5976C14.6711 77.7223 15.3709 77.1971 16.0707 77.1971Z" fill="black"/>
<path d="M36.0148 77.1971C36.7146 77.1971 37.4144 77.8974 37.4144 78.5976C37.4144 79.2978 36.7146 79.998 36.0148 79.998C35.315 79.998 34.6152 79.2978 34.6152 78.5976C34.6152 77.7223 35.1401 77.1971 36.0148 77.1971Z" fill="black"/>
<path d="M55.7841 77.1971C56.4839 77.1971 57.1837 77.8974 57.1837 78.5976C57.1837 79.2978 56.4839 79.998 55.7841 79.998C55.0843 79.998 54.3845 79.2978 54.3845 78.5976C54.3845 77.7223 55.0843 77.1971 55.7841 77.1971Z" fill="black"/>
<path d="M72.7546 77.1971C73.4544 77.1971 74.1542 77.8974 74.1542 78.5976C74.1542 79.2978 73.4544 79.998 72.7546 79.998C72.0548 79.998 71.355 79.2978 71.355 78.5976C71.355 77.7223 72.0548 77.1971 72.7546 77.1971Z" fill="black"/>
<path d="M79.9277 51.8149V63.0181C79.9277 63.7183 79.2279 64.4185 78.5281 64.4185H67.1563C66.4565 64.4185 65.7567 63.7183 65.7567 63.0181V51.8149C65.7567 51.1147 66.4565 50.4145 67.1563 50.4145H68.5559V56.0161H77.1285V50.4145H78.5281C79.2279 50.4145 79.9277 51.1147 79.9277 51.8149ZM71.3551 50.4145H74.1543V53.2153H71.3551V50.4145ZM67.1563 47.6136C64.882 47.6136 62.9575 49.5392 62.9575 51.8149V63.0181C62.9575 65.2937 64.882 67.2193 67.1563 67.2193H78.5281C80.8025 67.2193 82.7269 65.2937 82.7269 63.0181V51.8149C82.7269 49.5392 80.8025 47.6136 78.5281 47.6136H67.1563Z" fill="black"/>
<path d="M75.7285 30.8089C75.7285 32.3844 74.5038 33.6097 72.9293 33.6097C71.3547 33.6097 70.1301 32.3844 70.1301 30.8089C70.1301 29.2334 71.3547 28.0081 72.9293 28.0081C74.5038 28.0081 75.7285 29.2334 75.7285 30.8089ZM71.3547 25.3823C68.9054 26.0825 67.1559 28.1831 67.1559 30.8089C67.1559 30.984 67.1559 31.3341 67.1559 31.5091C65.4064 33.0846 64.1818 35.3602 64.1818 37.8109V42.5373L67.5058 45.6882L69.4303 43.7626L66.981 41.3119V37.6359C66.981 36.4105 67.5058 35.1852 68.2056 34.1349C69.2553 35.3602 70.8299 36.2355 72.5794 36.2355C74.3289 36.2355 75.9034 35.3602 76.9531 34.1349C77.8279 35.1852 78.1778 36.4105 78.1778 37.6359V41.3119L75.7285 43.7626L77.6529 45.6882L80.977 42.5373V37.8109C80.977 35.3602 79.9273 33.0846 78.0028 31.5091C78.0028 31.3341 78.0028 30.984 78.0028 30.8089C78.0028 28.1831 76.2533 26.0825 73.804 25.3823V8.40247H38.814V11.2033H71.3547V25.3823Z" fill="black"/>
</g>
<defs>
<clipPath id="clip0">
<rect width="88" height="87" fill="white" transform="translate(0.5)"/>
</clipPath>
</defs>
</svg>
