<svg width="91" height="88" viewBox="0 0 91 88" fill="none" xmlns="http://www.w3.org/2000/svg">
<g clip-path="url(#clip0)">
<path d="M57.0406 11.3607C60.977 11.3607 64.3766 14.6066 64.3766 18.3935C64.3766 22.1804 61.1559 25.4263 57.0406 25.4263C53.1042 25.4263 49.7046 22.1804 49.7046 18.3935C49.7046 14.6066 53.1042 11.3607 57.0406 11.3607ZM57.0406 28.4918C62.5873 28.4918 67.2394 23.9836 67.2394 18.5738C67.2394 13.164 62.7663 8.65576 57.0406 8.65576C51.4939 8.65576 46.8418 13.164 46.8418 18.5738C46.8418 23.9836 51.4939 28.4918 57.0406 28.4918Z" fill="black"/>
<path d="M57.0408 17.1312C57.7565 17.1312 58.4722 17.8525 58.4722 18.5738C58.4722 19.2951 57.7565 20.0164 57.0408 20.0164C56.3251 20.0164 55.6094 19.2951 55.6094 18.5738C55.6094 17.6722 56.3251 17.1312 57.0408 17.1312ZM57.0408 22.7214C59.3669 22.7214 61.335 20.7377 61.335 18.3935C61.335 16.0492 59.3669 14.0656 57.0408 14.0656C54.7148 14.0656 52.7466 16.0492 52.7466 18.3935C52.7466 20.7377 54.7148 22.7214 57.0408 22.7214Z" fill="black"/>
<path d="M52.7465 79.5246H72.9652V85.2951H52.7465V79.5246ZM6.22565 79.5246H20.7187V85.2951H6.22565V79.5246ZM3.36282 54.0984C3.36282 51.5738 4.25746 49.4098 6.04672 47.6066L9.08847 44.541V55.9016C9.08847 56.623 9.2674 57.3443 9.62525 58.0656L14.993 68.7049L17.498 67.4426L12.1302 56.8033C11.9513 56.4426 11.9513 56.2623 11.9513 55.9016C11.9513 54.8197 12.8459 53.918 14.0984 53.918L21.9712 63.8361C22.8658 65.0984 23.4026 66.541 23.4026 68.1639C23.4026 68.8852 23.2237 69.6066 23.0447 70.3279L20.8976 76.6393H8.90954L3.72068 56.2623C3.54175 55.541 3.36282 54.8197 3.36282 54.0984ZM13.5616 17.1311H38.2535V19.8361H20.8976V57.5246L16.6034 52.2951C16.0666 51.5738 15.172 51.2131 14.2773 51.2131C13.5616 51.2131 12.8459 51.3934 12.1302 51.7541V18.3934C12.1302 17.6721 12.667 17.1311 13.5616 17.1311ZM41.832 24.7049C42.1899 25.7869 42.1899 26.8689 41.4742 27.7705L40.9374 28.6721L42.7266 30.4754L38.2535 29.3934V22.7213H39.506C40.5795 22.9016 41.2952 23.6229 41.832 24.7049ZM41.1163 16.5902C42.5477 16.0492 43.8002 14.7869 44.5159 13.3443C45.2316 11.9016 45.2316 10.0984 44.5159 8.65574L47.0209 6.13115C48.4523 6.67213 50.2416 6.67213 51.8519 6.13115C53.4622 5.59016 54.5358 4.32787 55.2515 2.88525H59.0089C59.7247 4.32787 60.7982 5.59016 62.4085 6.13115C64.0189 6.67213 65.6292 6.67213 67.2396 6.13115L69.9235 8.65574C69.3867 10.0984 69.3867 11.7213 69.9235 13.3443C70.6392 14.7869 71.7127 16.0492 73.3231 16.5902V20.1967C71.8917 20.918 70.6392 22 69.9235 23.4426C69.2078 24.8852 69.2078 26.6885 69.9235 28.1311L67.2396 30.6557C65.8082 30.1148 64.0189 30.1148 62.4085 30.6557C61.5139 31.0164 60.7982 31.5574 60.0825 32.2787C59.3668 31.5574 58.2932 31.1967 57.0408 31.1967C55.7883 31.1967 54.8936 31.7377 54.1779 32.459C53.6412 31.7377 52.7465 31.1967 51.8519 30.8361C50.2416 30.2951 48.6312 30.2951 47.0209 30.8361L44.337 28.3115C44.8738 26.8689 44.8738 25.2459 44.337 23.623C43.6213 22.1803 42.5477 20.918 40.9374 20.3771L41.1163 16.5902ZM74.7545 22.7213H81.7326V56.8033H78.8698V52.4754C78.8698 50.1311 76.9016 48.1475 74.5756 48.1475C74.0388 48.1475 73.502 48.3279 72.9652 48.5082C72.4284 46.7049 70.8181 45.4426 68.8499 45.4426C67.7763 45.4426 66.7028 45.8033 65.9871 46.5246C65.2714 45.8033 64.1978 45.4426 63.1243 45.4426C62.5875 45.4426 62.0507 45.6229 61.6928 45.6229V35.7049C61.8718 34.6229 62.5875 33.9016 63.661 33.3607C64.7346 33 65.8082 33 66.8817 33.541L67.7763 34.082L73.502 28.4918L72.7863 27.5902C72.2495 26.6885 72.0706 25.6066 72.4284 24.5246C72.7863 23.623 73.6809 22.9016 74.7545 22.7213ZM87.4583 18.3934V60.9508C87.4583 61.6721 86.7425 62.3934 86.0268 62.3934H78.6909V59.5082H84.5954V19.8361H75.828V17.1311H86.0268C86.9215 17.1311 87.4583 17.6721 87.4583 18.3934ZM26.0865 71.4098C26.4443 70.3279 26.6233 69.4262 26.6233 68.3443C26.6233 67.4426 26.4443 66.3607 26.0865 65.459H43.9791V66.7213C43.9791 71.4098 46.1262 75.7377 49.7048 78.8033V85.2951H23.7604V78.4426L26.0865 71.4098ZM43.4423 59.6885C43.6213 60.5902 43.8002 61.4918 43.9791 62.5738H24.6551C24.6551 62.3934 24.4761 62.3934 24.4761 62.2131L22.508 59.6885H43.4423ZM32.3489 27.9508V34.082H26.6233V53.918H41.6531L42.1899 55C42.3688 55.541 42.5477 56.082 42.7266 56.623H23.7604V22.7213H35.3907V28.6721L32.3489 27.9508ZM29.4861 48.3279H32.3489V51.2131H29.4861V48.3279ZM29.4861 42.5574H32.3489V45.4426H29.4861V42.5574ZM32.3489 39.8525H29.4861V36.9672H32.3489V39.8525ZM43.9791 36.9672H38.2535V51.2131H35.3907V31.7377L44.1581 33.9016V36.9672H43.9791ZM46.8419 36.9672V34.2623L47.5577 33.9016C48.4523 33.3607 49.7048 33.1803 50.7783 33.7213C51.8519 34.082 52.5676 34.9836 52.7465 36.0656V56.9836C52.7465 57.1639 52.5676 57.1639 52.5676 56.9836L52.2097 54.459C51.8519 52.8361 51.1362 51.3934 49.8837 50.4918V37.1475H46.8419V36.9672ZM41.2952 51.2131L41.1163 45.4426H46.8419V48.5082C46.1262 48.3279 45.5895 48.1475 44.8738 48.1475C43.0845 48.3279 41.6531 49.5902 41.2952 51.2131ZM46.8419 42.5574H41.1163V39.6721H46.8419V42.5574ZM76.007 66.1803C76.007 69.7869 75.1123 73.3934 73.6809 76.8197H51.8519C48.8101 74.4754 47.0209 70.6885 47.0209 66.9016V65.2787C47.0209 61.4918 46.3052 57.7049 44.8738 54.2787L44.337 52.8361C44.337 52.6557 44.1581 52.4754 44.1581 52.2951C44.1581 51.7541 44.5159 51.3934 45.0527 51.3934C47.1998 51.3934 48.9891 52.8361 49.3469 55L49.7048 57.5246C49.8837 58.9672 51.1362 60.0492 52.7465 60.0492C54.3569 60.0492 55.7883 58.7869 55.7883 57.1639V35.5246C55.7883 34.8033 56.504 34.082 57.2197 34.082C57.9354 34.082 58.6511 34.8033 58.6511 35.5246V56.8033H61.335V49.7705C61.335 49.0492 62.0507 48.3279 62.7664 48.3279C63.4821 48.3279 64.1978 49.0492 64.1978 49.7705V56.8033H67.0606V49.7705C67.0606 49.0492 67.7763 48.3279 68.4921 48.3279C69.2078 48.3279 69.9235 49.0492 69.9235 49.7705V56.8033H72.7863V52.4754C72.7863 51.7541 73.502 51.0328 74.2177 51.0328C74.9334 51.0328 75.6491 51.7541 75.6491 52.4754V66.1803H76.007ZM78.8698 66.1803V65.459H86.2058C88.5318 65.459 90.5 63.4754 90.5 61.1311V18.3934C90.5 16.0492 88.5318 14.0656 86.2058 14.0656H74.7545C73.6809 13.8852 72.7863 13.1639 72.4284 12.082C72.0706 11 72.0706 9.91803 72.7863 9.01639L73.502 8.11475L67.7763 2.52459L66.8817 3.06557C65.9871 3.60656 64.7346 3.78689 63.661 3.2459C62.5875 2.88525 61.8718 1.98361 61.6928 0.901639L61.1561 0H53.1044L52.9254 1.08197C52.7465 2.16393 52.0308 3.06557 50.9573 3.42623C49.8837 3.78689 48.8101 3.78689 47.7366 3.2459L46.8419 2.70492L41.1163 8.29508L41.6531 9.19672C42.1899 10.0984 42.3688 11.1803 42.0109 12.2623C41.6531 13.1639 40.7584 13.8852 39.6849 14.2459H13.5616C11.2356 14.2459 9.2674 16.2295 9.2674 18.5738V40.7541L4.07853 45.6229C1.75249 47.9672 0.5 50.8525 0.5 54.0984C0.5 55 0.678926 56.082 0.857853 56.9836L5.86779 76.8197C4.43638 77 3.36282 78.2623 3.36282 79.7049V85.4754H0.5V88.3607H90.5V85.4754H76.007V78.6229C77.7962 74.6557 78.8698 70.3279 78.8698 66.1803Z" fill="black"/>
<path d="M17.856 34.082H14.9932V45.4426H17.856V34.082Z" fill="black"/>
<path d="M67.2398 39.8524H64.377V42.7377H67.2398V39.8524Z" fill="black"/>
<path d="M78.8697 39.8524H70.1023V42.7377H78.8697V39.8524Z" fill="black"/>
<path d="M78.8697 34.082H70.1023V36.9672H78.8697V34.082Z" fill="black"/>
</g>
<defs>
<clipPath id="clip0">
<rect width="90" height="88" fill="white" transform="translate(0.5)"/>
</clipPath>
</defs>
</svg>
