<svg width="93" height="87" viewBox="0 0 93 87" fill="none" xmlns="http://www.w3.org/2000/svg">
<g clip-path="url(#clip0)">
<path d="M6.82613 27.8616H2.66896V26.6034C2.66896 25.5248 3.57269 24.6261 4.65717 24.6261C5.74165 24.6261 6.64538 25.5248 6.64538 26.6034V27.8616H6.82613ZM6.82613 32.8947H2.66896V30.1984H6.82613V32.8947ZM6.82613 67.2273H2.66896V35.0517H6.82613V67.2273ZM6.46464 69.3843L4.65717 72.4401L2.84971 69.3843C2.84971 69.3843 2.84971 69.3843 2.84971 69.2046L6.46464 69.3843C6.64538 69.3843 6.46464 69.3843 6.46464 69.3843ZM4.83792 22.4691C2.48821 22.4691 0.5 24.2666 0.5 26.6034V68.3058C0.5 69.0248 0.680747 69.7438 1.04224 70.4629L3.75344 75.1364C4.11493 75.6757 4.65717 75.8554 5.19941 75.4959C5.5609 75.4959 5.74165 75.4959 5.74165 75.3162L8.45285 70.6426C8.81434 69.9236 8.99509 69.2046 8.99509 68.4856V26.6034C8.99509 24.2666 7.18762 22.4691 4.83792 22.4691Z" fill="black"/>
<path d="M90.1502 63.4524C90.1502 63.8119 89.7887 64.1714 89.4272 64.1714H84.1856L83.4626 44.2189C83.4626 43.6797 82.9204 43.1404 82.3781 43.1404H67.3762C66.8339 43.1404 66.2917 43.6797 66.2917 44.2189L66.4724 52.128L65.9302 53.2065C65.388 53.2065 64.8457 53.0268 64.1227 53.0268V39.9049H65.5687C66.1109 39.9049 66.6532 39.3656 66.6532 38.8264V34.5123C66.6532 33.9731 66.1109 33.4338 65.5687 33.4338H64.1227V30.5578H65.5687C66.1109 30.5578 66.6532 30.0185 66.6532 29.4793V25.1652C66.6532 24.6259 66.1109 24.0867 65.5687 24.0867H60.327L56.8929 20.6714V12.9421C56.8929 12.7623 57.0736 12.4028 57.4351 12.4028H89.7887C90.1502 12.4028 90.331 12.5826 90.331 12.9421V63.4524H90.1502ZM81.8359 64.1714C81.8359 63.9917 81.8359 63.9917 81.6551 63.8119L79.8477 59.6776C79.4862 58.9586 78.7632 58.5991 78.0402 58.9586L76.4135 59.6776C75.329 58.4193 74.2445 57.1611 72.7986 56.2623L73.5215 54.6445C73.883 53.9255 73.5215 53.0268 72.7986 52.847L68.6414 51.2293L68.4606 45.4772H81.2936L81.8359 64.1714ZM77.8595 64.7107C77.3172 64.8904 76.9557 65.6094 76.9557 66.3284C77.3172 68.126 77.3172 69.9235 76.9557 71.721C76.775 72.44 77.1365 72.9793 77.8595 73.3388L79.4862 73.878L78.4017 76.5743L76.775 76.035C76.052 75.8553 75.329 76.035 74.9675 76.5743C74.0638 78.0123 72.6178 79.2706 71.1718 80.3491C70.6296 80.7086 70.4489 81.4276 70.6296 82.1466L71.3526 83.5846L68.6414 84.4834L67.9184 82.8656C67.7377 82.3264 67.0147 81.9669 66.2917 81.9669C65.388 82.1466 64.4842 82.3264 63.5805 82.3264C63.942 81.6074 64.1227 80.7086 64.1227 79.8098V78.3718C64.8457 78.3718 65.5687 78.1921 66.2917 77.8326C66.8339 77.6528 67.1954 76.9338 67.0147 76.3945C66.8339 75.8553 66.1109 75.4958 65.5687 75.6755C65.0265 75.8553 64.665 76.035 64.1227 76.035V61.6549C64.665 61.6549 65.0265 61.8346 65.5687 62.0144C66.1109 62.1941 66.8339 62.0144 67.0147 61.2954C67.1954 60.7561 67.0147 60.0371 66.2917 59.8574C65.5687 59.6776 64.8457 59.4979 64.1227 59.3181V55.1838C64.8457 55.1838 65.388 55.3636 66.1109 55.3636C66.8339 55.5433 67.3762 55.1838 67.7377 54.4648L68.2799 53.0268L70.9911 54.1053L70.4489 55.5433C70.2681 56.0826 70.4489 56.8016 70.9911 57.1611C72.4371 58.0598 73.883 59.3181 74.7868 60.9359C75.1483 61.4751 75.8713 61.6549 76.5942 61.4751L78.0402 60.7561L79.3054 63.4524L77.8595 64.7107ZM64.1227 35.9503H64.4842V38.1074H64.1227V35.9503ZM62.6768 26.4235H64.665V28.5805H64.3035C64.1227 28.0412 63.942 27.502 63.5805 27.1425L62.6768 26.4235ZM61.9538 79.9896C61.9538 81.9669 60.327 83.5846 58.1581 83.5846H16.7671C14.7789 83.5846 12.9714 81.9669 12.9714 79.9896V18.1549C12.9714 16.1776 14.5982 14.5598 16.7671 14.5598H46.5903V24.2664C46.5903 27.3222 49.1208 29.659 52.1935 29.659H61.9538V79.9896ZM48.94 16.1776L60.5078 27.502H52.1935C50.386 27.502 48.94 26.064 48.94 24.2664V16.1776ZM60.327 8.26851C60.327 8.08876 60.5078 7.90901 60.6885 7.90901H86.5353C86.716 7.90901 86.8968 8.08876 86.8968 8.26851V10.2458H60.327V8.26851ZM63.7612 3.77471C63.7612 3.4152 63.942 3.23545 64.3035 3.23545H83.1011C83.4626 3.23545 83.6434 3.4152 83.6434 3.77471V5.57223H63.7612V3.77471ZM89.608 10.2458H89.0658V8.26851C89.0658 6.83049 87.8005 5.75198 86.3546 5.75198H85.4508V3.95446C85.4508 2.51644 84.1856 1.25818 82.7396 1.25818H64.3035C62.8575 1.25818 61.5923 2.51644 61.5923 3.95446V5.75198H60.6885C59.2426 5.75198 57.9773 6.83049 57.9773 8.26851V10.2458H57.2544C55.8084 10.2458 54.5432 11.504 54.5432 12.9421V18.6941L48.94 13.1218C48.3978 12.5826 47.6748 12.2231 46.7711 12.2231H16.7671C13.5137 12.2231 10.8025 14.9193 10.8025 18.1549V79.9896C10.8025 83.2251 13.5137 85.9214 16.7671 85.9214H58.1581C59.6041 85.9214 60.8693 85.3822 61.9538 84.4834C63.3997 84.6631 64.8457 84.6631 66.1109 84.4834L66.8339 86.1012C67.1954 86.8202 67.9184 87.1797 68.6414 86.8202L72.9793 85.0227C73.7023 84.6631 74.0638 83.9441 73.7023 83.2251L72.9793 81.6074C74.2445 80.7086 75.5098 79.4503 76.4135 78.1921L78.0402 78.9111C78.7632 79.2706 79.6669 78.9111 79.8477 78.1921L81.6551 74.0578C82.0166 73.3388 81.6551 72.44 80.9322 72.2603L79.3054 71.5412C79.4862 69.9235 79.4862 68.3057 79.3054 66.6879L89.4272 66.5082C91.054 66.5082 92.3192 65.2499 92.3192 63.6322V12.9421C92.4999 11.504 91.2347 10.2458 89.608 10.2458Z" fill="black"/>
<path d="M85.0891 19.4132H82.9202V17.2562H85.0891V19.4132ZM86.3544 15.0992H81.8357C81.2935 15.0992 80.7512 15.6384 80.7512 16.1777V20.4917C80.7512 21.031 81.2935 21.5703 81.8357 21.5703H86.1736C86.7159 21.5703 87.2581 21.031 87.2581 20.4917V16.1777C87.4388 15.6384 86.8966 15.0992 86.3544 15.0992Z" fill="black"/>
<path d="M64.1228 19.4132H61.9539V17.2562H64.1228V19.4132ZM65.2073 15.0992H60.8694C60.3272 15.0992 59.7849 15.6384 59.7849 16.1777V20.4917C59.7849 21.031 60.3272 21.5703 60.8694 21.5703H65.2073C65.7495 21.5703 66.2918 21.031 66.2918 20.4917V16.1777C66.2918 15.6384 65.7495 15.0992 65.2073 15.0992Z" fill="black"/>
<path d="M74.9676 19.4132H72.7986V17.2562H74.9676V19.4132ZM76.052 15.0992H71.7141C71.1719 15.0992 70.6296 15.6384 70.6296 16.1777V20.4917C70.6296 21.031 71.1719 21.5703 71.7141 21.5703H76.052C76.5943 21.5703 77.1365 21.031 77.1365 20.4917V16.1777C77.3173 15.6384 76.775 15.0992 76.052 15.0992Z" fill="black"/>
<path d="M85.0891 28.5806H82.9202V26.4236H85.0891V28.5806ZM86.3544 24.2665H81.8357C81.2935 24.2665 80.7512 24.8058 80.7512 25.3451V29.6591C80.7512 30.1984 81.2935 30.7376 81.8357 30.7376H86.1736C86.7159 30.7376 87.2581 30.1984 87.2581 29.6591V25.3451C87.4388 24.8058 86.8966 24.2665 86.3544 24.2665Z" fill="black"/>
<path d="M74.9676 28.5806H72.7986V26.4236H74.9676V28.5806ZM76.052 24.2665H71.7141C71.1719 24.2665 70.6296 24.8058 70.6296 25.3451V29.6591C70.6296 30.1984 71.1719 30.7376 71.7141 30.7376H76.052C76.5943 30.7376 77.1365 30.1984 77.1365 29.6591V25.3451C77.3173 24.8058 76.775 24.2665 76.052 24.2665Z" fill="black"/>
<path d="M85.0891 38.1074H82.9202V35.9504H85.0891V38.1074ZM86.3544 33.7934H81.8357C81.2935 33.7934 80.7512 34.3327 80.7512 34.8719V39.186C80.7512 39.7252 81.2935 40.2645 81.8357 40.2645H86.1736C86.7159 40.2645 87.2581 39.7252 87.2581 39.186V34.8719C87.4388 34.1529 86.8966 33.7934 86.3544 33.7934Z" fill="black"/>
<path d="M74.9676 38.1074H72.7986V35.9504H74.9676V38.1074ZM76.052 33.7934H71.7141C71.1719 33.7934 70.6296 34.3327 70.6296 34.8719V39.186C70.6296 39.7252 71.1719 40.2645 71.7141 40.2645H76.052C76.5943 40.2645 77.1365 39.7252 77.1365 39.186V34.8719C77.3173 34.1529 76.775 33.7934 76.052 33.7934Z" fill="black"/>
<path d="M49.3014 0H23.2739C22.7317 0 22.1895 0.539256 22.1895 1.07851C22.1895 1.61777 22.7317 2.15702 23.2739 2.15702H49.3014C49.8437 2.15702 50.3859 1.61777 50.3859 1.07851C50.5667 0.539256 50.0244 0 49.3014 0Z" fill="black"/>
<path d="M14.7788 2.15702H19.1167C19.659 2.15702 20.2012 1.61777 20.2012 1.07851C20.382 0.539256 19.8397 0 19.1167 0H14.7788C14.2366 0 13.6943 0.539256 13.6943 1.07851C13.6943 1.61777 14.2366 2.15702 14.7788 2.15702Z" fill="black"/>
<path d="M49.3014 6.65076H33.0342C32.4919 6.65076 31.9497 7.19001 31.9497 7.72927C31.9497 8.26853 32.4919 8.80778 33.0342 8.80778H49.3014C49.8436 8.80778 50.3858 8.26853 50.3858 7.72927C50.5666 7.19001 50.0244 6.65076 49.3014 6.65076Z" fill="black"/>
<path d="M23.9968 6.65076C23.4546 6.65076 22.9124 7.19001 22.9124 7.72927C22.9124 8.26853 23.4546 8.80778 23.9968 8.80778H28.6962C29.2385 8.80778 29.7807 8.26853 29.7807 7.72927C29.7807 7.19001 29.2385 6.65076 28.6962 6.65076H23.9968Z" fill="black"/>
<path d="M67.9186 63.6322C68.6416 64.1715 69.1838 64.8905 69.5453 65.6095C69.9068 66.1488 70.449 66.3285 70.9913 65.969C71.5335 65.6095 71.7142 65.0703 71.3528 64.531C70.8105 63.6322 70.0875 62.7335 69.1838 62.0145C68.6416 61.655 67.9186 61.655 67.5571 62.1942C67.3763 62.5537 67.3763 63.093 67.9186 63.6322Z" fill="black"/>
<path d="M70.991 72.44C70.4487 72.0805 69.7258 72.2603 69.545 72.7995C69.1835 73.5185 68.4605 74.2375 67.9183 74.7768C67.376 75.1363 67.376 75.8553 67.7375 76.3946C68.099 76.9338 68.822 76.9338 69.3643 76.5743C70.268 75.8553 70.991 74.9566 71.5332 74.0578C71.714 73.3388 71.5332 72.7995 70.991 72.44Z" fill="black"/>
<path d="M71.3528 66.688C70.8105 66.8677 70.2683 67.407 70.449 67.9462C70.6298 68.845 70.6298 69.564 70.449 70.4628C70.2683 71.002 70.8105 71.5413 71.3528 71.721H71.5335C72.0757 71.721 72.618 71.3615 72.618 70.8223C72.7987 69.7437 72.7987 68.6652 72.618 67.5867C72.4372 66.8677 71.895 66.5082 71.3528 66.688Z" fill="black"/>
<path d="M20.2014 25.8843C20.7436 25.8843 21.1051 26.2438 21.1051 26.7831C21.1051 27.3223 20.7436 27.6818 20.2014 27.6818C20.2014 27.6818 20.2014 27.6818 20.0206 27.6818C19.6591 27.6818 19.4784 27.5021 19.2976 27.3223C18.9361 26.7831 18.2132 26.7831 17.6709 27.1426C17.1287 27.5021 17.1287 28.2211 17.4902 28.7603C17.8517 29.2996 18.3939 29.4793 18.9361 29.8388C18.9361 30.3781 19.4784 30.9173 20.0206 30.9173C20.5629 30.9173 21.1051 30.3781 21.1051 29.8388C22.7318 29.2996 23.6355 27.5021 22.9126 25.8843C22.3703 24.626 21.2858 23.907 19.8399 23.907C19.2976 23.907 18.9361 23.5475 18.9361 23.0083C18.9361 22.469 19.2976 22.1095 19.8399 22.1095C19.8399 22.1095 19.8399 22.1095 20.0206 22.1095C20.3821 22.1095 20.5629 22.2893 20.7436 22.469C21.1051 23.0083 21.8281 23.0083 22.3703 22.6488C22.9126 22.2893 22.9126 21.5702 22.5511 21.031C22.1896 20.4917 21.6473 20.312 21.1051 19.9525C21.1051 19.4132 20.5629 18.874 20.0206 18.874C19.4784 18.874 18.9361 19.4132 18.9361 19.9525C17.3094 20.4917 16.4057 22.2893 17.1287 23.907C17.6709 24.9855 18.9361 25.8843 20.2014 25.8843Z" fill="black"/>
<path d="M53.4588 76.3946L51.2898 72.6199C51.4706 72.4401 51.6513 72.0806 51.832 71.9008L55.9892 72.7996C55.447 74.2376 54.724 75.4959 53.4588 76.3946ZM48.5786 78.1922C48.0364 78.1922 47.6749 78.1922 47.1326 78.0124L48.2171 74.0579H48.3979C48.7594 74.0579 48.9401 74.0579 49.3016 73.8781L51.4706 77.4732C50.5668 78.0124 49.4823 78.1922 48.5786 78.1922ZM44.9637 77.2934C41.168 75.3161 39.722 70.8223 41.7102 67.2273C42.9755 64.7108 45.6867 63.093 48.5786 63.093C48.7594 63.093 48.9401 63.093 49.1208 63.093L48.0364 67.2273C46.0482 67.407 44.7829 69.2046 44.9637 71.0021C45.1444 71.7211 45.5059 72.6199 46.0482 73.1591L44.9637 77.2934ZM49.6631 70.6426C49.6631 71.3616 49.1208 71.9008 48.3979 71.9008C47.6749 71.9008 47.1326 71.3616 47.1326 70.6426C47.1326 69.9236 47.6749 69.3843 48.3979 69.3843C49.1208 69.3843 49.6631 69.9236 49.6631 70.6426ZM56.7122 70.6426L51.832 69.7438C51.6513 68.8451 50.9283 68.1261 50.2053 67.7666L51.2898 63.2727C51.4706 62.374 50.9283 61.2955 50.0246 61.1157H49.8438C49.3016 61.1157 48.9401 60.936 48.3979 60.936C45.6867 60.936 42.9755 62.0145 41.168 63.9918C37.3723 67.9463 37.5531 74.0579 41.5295 77.6529C43.337 79.2707 45.8674 80.3492 48.3979 80.3492C53.0973 80.3492 57.2544 77.1137 58.1582 72.7996C58.3389 71.7211 57.7967 70.8223 56.7122 70.6426Z" fill="black"/>
<path d="M58.3388 67.2273L53.8201 67.0476L55.0854 62.5538C57.0736 63.2728 58.3388 65.0703 58.3388 67.2273ZM53.2779 60.936L51.2897 67.7666C51.1089 68.3058 51.4704 69.0248 52.0127 69.2046H52.1934L59.2425 69.5641C59.7848 69.5641 60.327 69.2046 60.327 68.6653C61.05 64.7108 58.3388 60.936 54.3624 60.217C53.8201 60.0372 53.2779 60.3967 53.2779 60.936Z" fill="black"/>
<path d="M27.0698 22.4691H43.8793C44.4215 22.4691 44.9637 21.9298 44.9637 21.3906C44.9637 20.8513 44.4215 20.3121 43.8793 20.3121H27.0698C26.5276 20.3121 25.9854 20.8513 25.9854 21.3906C25.9854 21.9298 26.5276 22.4691 27.0698 22.4691Z" fill="black"/>
<path d="M27.0698 29.6592H43.8793C44.4215 29.6592 44.9637 29.1199 44.9637 28.5806C44.9637 28.0414 44.4215 27.5021 43.8793 27.5021H27.0698C26.5276 27.5021 25.9854 28.0414 25.9854 28.5806C25.9854 29.1199 26.5276 29.6592 27.0698 29.6592Z" fill="black"/>
<path d="M50.9282 35.5908C50.9282 36.13 51.4705 36.6693 52.0127 36.6693H56.5314C57.0736 36.6693 57.6158 36.13 57.6158 35.5908C57.6158 35.0515 57.0736 34.5123 56.5314 34.5123H52.0127C51.4705 34.5123 50.9282 35.0515 50.9282 35.5908Z" fill="black"/>
<path d="M17.3096 35.5908C17.3096 36.13 17.8518 36.6693 18.394 36.6693H47.675C48.2172 36.6693 48.7595 36.13 48.7595 35.5908C48.7595 35.0515 48.2172 34.5123 47.675 34.5123H18.394C17.8518 34.5123 17.3096 35.0515 17.3096 35.5908Z" fill="black"/>
<path d="M56.5312 41.7024H26.708C26.1658 41.7024 25.6235 42.2416 25.6235 42.7809C25.6235 43.3202 26.1658 43.8594 26.708 43.8594H56.5312C57.0734 43.8594 57.6157 43.3202 57.6157 42.7809C57.6157 42.2416 57.0734 41.7024 56.5312 41.7024Z" fill="black"/>
<path d="M18.394 43.8594H22.3705C22.9127 43.8594 23.455 43.3202 23.455 42.7809C23.455 42.2416 22.9127 41.7024 22.3705 41.7024H18.394C17.8518 41.7024 17.3096 42.2416 17.3096 42.7809C17.3096 43.3202 17.8518 43.8594 18.394 43.8594Z" fill="black"/>
<path d="M56.5314 48.8925H42.2524C41.7102 48.8925 41.168 49.4317 41.168 49.971C41.168 50.5102 41.7102 51.0495 42.2524 51.0495H56.5314C57.0737 51.0495 57.6159 50.5102 57.6159 49.971C57.6159 49.252 57.0737 48.8925 56.5314 48.8925Z" fill="black"/>
<path d="M18.394 51.0495H38.9992C39.5414 51.0495 40.0836 50.5102 40.0836 49.971C40.0836 49.4317 39.5414 48.8925 38.9992 48.8925H18.394C17.8518 48.8925 17.3096 49.4317 17.3096 49.971C17.3096 50.5102 17.8518 51.0495 18.394 51.0495Z" fill="black"/>
<path d="M33.938 58.2395H56.5313C57.0736 58.2395 57.6158 57.7003 57.6158 57.161C57.6158 56.6218 57.0736 56.0825 56.5313 56.0825H33.938C33.3958 56.0825 32.8535 56.6218 32.8535 57.161C32.8535 57.7003 33.215 58.2395 33.938 58.2395Z" fill="black"/>
<path d="M29.9618 58.2395C30.5041 58.2395 31.0463 57.7003 31.0463 57.161C31.0463 56.6218 30.5041 56.0825 29.9618 56.0825H18.394C17.8518 56.0825 17.3096 56.6218 17.3096 57.161C17.3096 57.7003 17.8518 58.2395 18.394 58.2395H29.9618Z" fill="black"/>
<path d="M35.5648 63.093H18.7554C18.2131 63.093 17.6709 63.6322 17.6709 64.1715C17.6709 64.7107 18.2131 65.25 18.7554 65.25H35.5648C36.107 65.25 36.6493 64.7107 36.6493 64.1715C36.83 63.6322 36.2878 63.093 35.5648 63.093Z" fill="black"/>
<path d="M35.5648 70.283H18.7554C18.2131 70.283 17.6709 70.8223 17.6709 71.3615C17.6709 71.9008 18.2131 72.44 18.7554 72.44H35.5648C36.107 72.44 36.6493 71.9008 36.6493 71.3615C36.83 70.8223 36.2878 70.283 35.5648 70.283Z" fill="black"/>
<path d="M35.5648 77.4731H18.7554C18.2131 77.4731 17.6709 78.0124 17.6709 78.5517C17.6709 79.0909 18.2131 79.6302 18.7554 79.6302H35.5648C36.107 79.6302 36.6493 79.0909 36.6493 78.5517C36.83 77.8327 36.2878 77.4731 35.5648 77.4731Z" fill="black"/>
<path d="M15.1404 21.75C14.5981 21.75 14.0559 22.2893 14.0559 22.8285V33.2541C14.0559 33.7934 14.5981 34.3326 15.1404 34.3326C15.6826 34.3326 16.2249 33.7934 16.2249 33.2541V22.8285C16.4056 22.1095 15.8634 21.75 15.1404 21.75Z" fill="black"/>
<path d="M15.1404 17.9752C14.5981 17.9752 14.0559 18.5145 14.0559 19.0537V19.4132C14.0559 19.9525 14.5981 20.4917 15.1404 20.4917C15.6826 20.4917 16.2249 19.9525 16.2249 19.4132V19.0537C16.4056 18.5145 15.8634 17.9752 15.1404 17.9752Z" fill="black"/>
</g>
<defs>
<clipPath id="clip0">
<rect width="92" height="87" fill="white" transform="translate(0.5)"/>
</clipPath>
</defs>
</svg>
