<svg width="91" height="88" viewBox="0 0 91 88" fill="none" xmlns="http://www.w3.org/2000/svg">
<g clip-path="url(#clip0)">
<path d="M87.9244 85.1028H85.0298V82.2057H82.1352V85.1028H73.2704V82.2057H70.3757V85.1028H67.4811V83.6543C67.4811 78.2222 72.004 73.6954 77.7932 73.6954C83.4016 73.6954 88.1054 78.2222 88.1054 83.6543V85.1028H87.9244ZM73.2704 66.6337V63.7366C73.2704 61.3826 75.2604 59.3909 77.6123 59.3909C79.9642 59.3909 81.9543 61.3826 81.9543 63.7366V66.6337C81.9543 68.9876 79.9642 70.9794 77.6123 70.9794C75.2604 70.9794 73.2704 68.9876 73.2704 66.6337ZM61.5109 65.3662C60.7873 65.3662 60.0636 64.6419 60.0636 63.9176C60.0636 63.1933 60.7873 62.4691 61.5109 62.4691C62.2346 62.4691 62.9582 63.1933 62.9582 63.9176C63.1392 64.6419 62.4155 65.3662 61.5109 65.3662ZM41.0676 66.6337V63.7366C41.0676 61.3826 43.0577 59.3909 45.4095 59.3909C47.7614 59.3909 49.7515 61.3826 49.7515 63.7366V66.6337C49.7515 68.9876 47.7614 70.9794 45.4095 70.9794C43.0577 70.9794 41.0676 68.9876 41.0676 66.6337ZM55.7217 83.8353V85.1028H52.827V82.2057H49.9324V85.1028H41.0676V82.2057H38.173V85.1028H35.2783V83.6543C35.2783 78.2222 39.8012 73.6954 45.5905 73.6954C51.3797 73.6954 55.7217 78.2222 55.7217 83.8353ZM42.5149 48.3456H48.3042C48.3042 49.9752 47.0378 51.2427 45.4095 51.2427C43.7813 51.2427 42.5149 49.7942 42.5149 48.3456ZM51.3797 45.4485H39.6203V42.5514H51.3797V45.4485ZM34.7356 30.2386C31.1173 27.1604 29.1272 22.8147 29.3082 18.288C29.4891 10.1398 36.3638 3.25919 44.6859 2.89705C49.2087 2.71598 53.3698 4.34561 56.4453 7.24273C59.7018 10.1398 61.33 14.3045 61.33 18.4691C61.33 22.9958 59.34 27.3415 55.7217 30.2386C52.827 32.7736 51.0179 36.2139 51.0179 39.6543H39.2584C39.4394 36.2139 37.8111 32.7736 34.7356 30.2386ZM29.3082 65.3662C28.5845 65.3662 27.8608 64.6419 27.8608 63.9176C27.8608 63.1933 28.5845 62.4691 29.3082 62.4691C30.0318 62.4691 30.7555 63.1933 30.7555 63.9176C30.7555 64.6419 30.2127 65.3662 29.3082 65.3662ZM8.86481 66.6337V63.7366C8.86481 61.3826 10.8549 59.3909 13.2068 59.3909C15.5586 59.3909 17.5487 61.3826 17.5487 63.7366V66.6337C17.5487 68.9876 15.5586 70.9794 13.2068 70.9794C10.8549 70.9794 8.86481 68.9876 8.86481 66.6337ZM23.5189 83.8353V85.1028H20.6243V82.2057H17.5487V85.1028H8.86481V82.2057H5.78926V85.1028H2.89463V83.6543C2.89463 78.2222 7.4175 73.6954 13.2068 73.6954C18.8151 73.8765 23.5189 78.2222 23.5189 83.8353ZM82.6779 71.8847C84.1253 70.6172 85.0298 68.8065 85.0298 66.6337V63.7366C85.0298 59.753 81.7734 56.6748 77.6123 56.6748C73.994 56.6748 71.0994 59.0287 70.3757 62.288H65.4911C64.9483 60.6584 63.3201 59.3909 61.33 59.3909C59.34 59.3909 57.8926 60.6584 57.169 62.288H52.2843C51.7416 59.5719 49.3897 57.3991 46.495 56.6748V53.4156C49.0278 52.6913 50.837 50.5184 50.837 47.9835H52.2843C53.0079 47.9835 53.7316 47.2592 53.7316 46.5349V42.1892H56.6262V39.8353H54.2744C54.2744 37.1193 55.5408 34.4032 57.8926 32.5925C62.0537 29.1522 64.5865 24.0822 64.5865 18.6501C64.5865 13.5802 62.4155 8.87236 58.7972 5.25096C54.998 1.81063 50.1133 -0.181139 44.8668 0.181001C34.9165 0.543141 26.7753 8.69129 26.5944 18.288C26.4135 23.7201 28.9463 28.9711 33.1074 32.4115C35.4592 34.4032 36.7256 37.1193 36.9066 39.8353H34.0119V42.7324H36.9066V47.0781C36.9066 47.8024 37.6302 48.5267 38.3539 48.5267H39.8012C39.8012 51.2427 41.6103 53.4156 44.1431 53.9588V57.218C41.2485 57.7612 39.0775 59.9341 38.3539 62.8312H33.4692C32.9264 61.2016 31.2982 59.9341 29.3082 59.9341C27.3181 59.9341 25.8708 61.2016 25.1471 62.8312H20.2624C19.5388 59.5719 16.6441 57.218 13.0258 57.218C9.04572 57.218 5.60835 60.4773 5.60835 64.2798V67.1769C5.60835 69.1686 6.51292 71.1604 7.96024 72.4279C3.43738 73.8765 0 78.4032 0 83.8353V86.7324C0 87.4567 0.723658 88.181 1.44732 88.181H24.9662C25.6899 88.181 26.4135 87.4567 26.4135 86.7324V83.8353C26.4135 78.4032 22.9761 73.8765 18.0915 72.0658C19.5388 70.7983 20.4433 68.9876 20.4433 66.8148V65.3662H25.1471C25.6899 66.9958 27.3181 68.2633 29.3082 68.2633C31.2982 68.2633 32.7455 66.9958 33.4692 65.3662H38.173V66.8148C38.173 68.8065 39.0775 70.7983 40.5248 72.0658C35.6402 74.0575 32.2028 78.5843 32.2028 83.8353V86.7324C32.2028 87.4567 32.9264 88.181 33.6501 88.181H57.169C57.8926 88.181 58.6163 87.4567 58.6163 86.7324V83.8353C58.6163 78.4032 55.1789 73.8765 50.2942 72.0658C51.7415 70.7983 52.6461 68.9876 52.6461 66.8148V65.3662H57.3499C57.8926 66.9958 59.5209 68.2633 61.5109 68.2633C63.501 68.2633 64.9483 66.9958 65.672 65.3662H70.3757V66.8148C70.3757 68.8065 71.2803 70.7983 72.7276 72.0658C67.8429 74.0575 64.4056 78.5843 64.4056 83.8353V86.7324C64.4056 87.4567 65.1292 88.181 65.8529 88.181H89.3718C90.0954 88.181 90.8191 87.4567 90.8191 86.7324V83.8353C91 78.4032 87.5626 73.8765 82.6779 71.8847Z" fill="white"/>
<path d="M48.3044 34.0411H42.5151V36.9383H48.3044V34.0411Z" fill="white"/>
<path d="M45.4095 14.1234C47.7614 14.1234 49.7515 16.1152 49.7515 18.4691C49.7515 20.823 47.7614 22.8148 45.4095 22.8148C43.0576 22.8148 41.0676 20.823 41.0676 18.4691C41.0676 16.1152 43.0576 14.1234 45.4095 14.1234ZM43.9622 25.3498V28.2469H46.8568V25.3498C47.7614 25.1687 48.666 24.8066 49.3896 24.2633L51.5606 26.4362L53.5507 24.4444L51.3797 22.2716C51.9225 21.5473 52.2843 20.6419 52.4652 19.7366H55.5407V17.0205H52.4652C52.2843 16.1152 51.9225 15.2098 51.3797 14.4856L53.5507 12.3127L51.5606 10.321L49.3896 12.4938C48.666 11.9506 47.7614 11.5884 46.8568 11.4074V8.51025H43.9622V11.4074C43.0576 11.5884 42.1531 11.9506 41.4294 12.4938L39.2584 10.321L37.2684 12.3127L39.4394 14.4856C38.8966 15.2098 38.5348 16.1152 38.3539 17.0205H35.2783V19.9177H38.3539C38.5348 20.823 38.8966 21.7284 39.4394 22.4526L37.2684 24.6255L39.2584 26.6173L41.4294 24.4444C42.1531 24.8066 43.0576 25.1687 43.9622 25.3498Z" fill="white"/>
</g>
<defs>
<clipPath id="clip0">
<rect width="91" height="88" fill="white"/>
</clipPath>
</defs>
</svg>
