<svg width="91" height="89" viewBox="0 0 91 89" fill="none" xmlns="http://www.w3.org/2000/svg">
<g clip-path="url(#clip0)">
<path d="M51.3797 47.1807C54.2744 45.0361 56.2644 42.1767 57.7118 37.8876C59.1591 38.7811 60.6064 40.0321 61.8728 41.2831C58.9782 44.1426 55.3599 46.1084 51.3797 47.1807ZM46.4951 34.3133C49.7515 34.492 52.8271 35.2068 55.7217 36.6365C53.9126 42.1767 51.1988 45.0361 46.4951 47.5382V34.3133ZM46.4951 26.0924H57.8927C57.3499 29.488 56.9881 32.3474 56.2644 34.6707C53.1889 33.241 49.7515 32.3474 46.4951 32.1687V26.0924ZM46.4951 17.8715C49.0279 17.6928 51.5607 17.3353 54.0935 16.4418L58.2545 23.5904C58.2545 23.7691 58.2545 23.7691 58.2545 23.9478H46.4951V17.8715ZM46.4951 2.50201C48.666 3.5743 50.4752 5.18273 52.1034 6.96988C51.1988 9.29317 51.3798 11.7952 52.6462 13.9398L53.008 14.6546C51.0179 15.3695 48.8469 15.7269 46.676 15.9056V2.50201H46.4951ZM54.2744 3.93173C54.0935 4.11044 53.9126 4.28916 53.7316 4.46787C53.5507 4.64659 53.3698 4.8253 53.1889 5.00402C52.4652 4.11044 51.5607 3.39558 50.837 2.68072C51.9225 3.03815 53.1889 3.39558 54.2744 3.93173ZM59.34 4.28916C60.7873 4.28916 62.4155 4.8253 63.501 5.89759C65.3102 7.68474 65.672 10.5442 64.4056 12.8675L59.5209 21.2671L54.6362 12.8675C53.008 10.1867 53.9126 6.61245 56.6263 5.00402C57.3499 4.46787 58.2545 4.28916 59.34 4.28916ZM68.5666 23.9478H60.4255V23.7691L65.8529 14.4759C67.4811 17.3353 68.3857 20.5522 68.5666 23.9478ZM63.3201 39.496C61.8728 38.0663 60.0636 36.6365 58.2545 35.5643C58.9782 32.8835 59.5209 29.6667 60.0636 25.9137H68.5666C68.3857 30.9177 66.5766 35.743 63.3201 39.496ZM44.3241 15.7269C41.0676 15.5482 37.8112 14.8333 34.9165 13.2249C36.9066 8.3996 40.1631 4.64659 44.3241 2.50201V15.7269ZM44.3241 23.9478H37.2684C37.0875 22.8755 36.5448 21.9819 35.6402 21.2671C34.9165 20.5522 34.012 20.0161 32.9265 19.6586C33.1074 18.2289 33.4692 16.7992 34.012 15.3695C37.2684 16.9779 40.7058 17.8715 44.1432 17.8715V23.9478H44.3241ZM44.3241 32.1687C40.7058 32.3474 37.2684 33.241 34.1929 34.6707C34.012 34.1345 33.831 33.5984 33.6501 33.0622L36.5448 28.0582C36.9066 27.3434 37.2684 26.6285 37.2684 25.9137H44.1432V32.1687H44.3241ZM44.3241 47.5382C40.1631 45.2149 36.9066 41.6406 34.9165 36.8153C37.8112 35.3855 41.0676 34.492 44.3241 34.492V47.5382ZM28.9464 41.1044C30.2128 39.8534 31.4792 38.7811 33.1074 37.8876C34.7356 41.8193 37.0875 45.0361 40.1631 47.3594C35.8211 46.2871 32.0219 44.1426 28.9464 41.1044ZM27.499 39.496C24.4235 35.743 22.6143 31.0964 22.2525 26.0924H25.6899C25.8708 26.8072 26.0517 27.5221 26.4136 28.2369L30.5746 35.2068C30.9364 35.743 31.4792 35.9217 32.0219 35.5643V35.743C30.3937 36.8153 28.9464 38.0663 27.499 39.496ZM34.1929 22.6968C35.4593 23.9478 35.6402 25.7349 34.7356 27.1647L31.4792 32.7048L28.2227 27.1647C27.1372 25.3775 27.8609 23.0542 29.4891 22.1606C31.1173 21.2671 32.9265 21.4458 34.1929 22.6968ZM27.499 10.5442C28.9464 11.9739 30.3937 13.2249 32.2028 14.2972C31.6601 15.9056 31.1173 17.6928 30.9364 19.4799C28.4036 19.8373 26.4135 21.6245 25.8708 23.9478H22.2525C22.4334 19.1225 24.2426 14.2972 27.499 10.5442ZM39.9821 2.68072C36.9066 5.00402 34.5547 8.22088 32.9265 12.1526C31.4792 11.259 30.2128 10.1867 28.9464 8.93574C32.0219 5.89759 35.8211 3.75301 39.9821 2.68072ZM70.7376 25.0201C70.7376 20.3735 69.4712 15.9056 66.9384 11.9739C68.0239 7.86345 65.4911 3.5743 61.3301 2.32329C59.7018 1.96586 58.0736 1.96586 56.6263 2.50201C53.1889 0.893574 49.3897 0 45.4096 0C31.4792 0 20.0815 11.259 20.0815 25.0201C20.0815 38.7811 31.4792 50.0402 45.4096 50.0402C59.34 50.0402 70.7376 38.9598 70.7376 25.0201Z" fill="white"/>
<path d="M59.34 8.0421C60.4255 8.0421 61.33 8.93568 61.33 10.008C61.33 11.0803 60.4255 11.9738 59.34 11.9738C58.2545 11.9738 57.3499 11.0803 57.3499 10.008C57.3499 8.93568 58.2545 8.0421 59.34 8.0421ZM59.34 13.9397C61.6919 13.9397 63.501 12.1525 63.501 9.82925C63.501 7.50596 61.6919 5.71881 59.34 5.71881C56.9881 5.71881 55.179 7.50596 55.179 9.82925C55.179 12.1525 57.169 13.9397 59.34 13.9397Z" fill="white"/>
<path d="M32.5648 25.1989C32.5648 25.735 32.0221 26.2712 31.4794 26.2712C30.9366 26.2712 30.3939 25.735 30.3939 25.1989C30.3939 24.6627 30.9366 24.1266 31.4794 24.1266C32.203 24.1266 32.5648 24.6627 32.5648 25.1989ZM28.4038 25.1989C28.4038 26.986 29.8511 28.4157 31.6603 28.4157C33.4694 28.4157 34.9167 26.986 34.9167 25.1989C34.9167 23.4117 33.4694 21.982 31.6603 21.982C29.8511 21.982 28.4038 23.4117 28.4038 25.1989Z" fill="white"/>
<path d="M15.9203 63.98L13.5684 62.3715C13.0256 62.0141 12.4829 62.1928 12.1211 62.5502C11.7592 63.0864 11.9401 63.6225 12.302 63.98L14.6539 65.5884C15.1966 65.9458 15.7393 65.7671 16.1012 65.4097C16.463 65.0522 16.463 64.3374 15.9203 63.98Z" fill="white"/>
<path d="M20.0814 67.0181L18.2722 65.7671C17.7295 65.4097 17.1867 65.5884 16.8249 65.9458C16.4631 66.482 16.644 67.0181 17.0058 67.3755L18.815 68.6265C19.3577 68.984 19.9005 68.8052 20.2623 68.4478C20.6241 68.0904 20.4432 67.3755 20.0814 67.0181Z" fill="white"/>
<path d="M11.2169 60.5843L8.865 58.9759C8.32226 58.6185 7.77952 58.7972 7.41769 59.1546C7.05586 59.6908 7.23677 60.2269 7.5986 60.5843L9.95049 62.1928C10.4932 62.5502 11.036 62.3715 11.3978 62.014C11.7596 61.6566 11.7596 60.9418 11.2169 60.5843Z" fill="white"/>
<path d="M6.51303 57.1888L4.16114 55.5803C3.6184 55.2229 3.07566 55.4016 2.71383 55.759C2.352 56.2952 2.53291 56.8313 2.89474 57.1888L5.24663 58.9759C5.78938 59.3333 6.33212 59.1546 6.69395 58.7972C7.05578 58.2611 7.05578 57.5462 6.51303 57.1888Z" fill="white"/>
<path d="M40.3439 75.0602L23.8807 85.7831V76.6686L38.7157 65.4096L40.3439 64.1586V75.0602ZM21.8907 62.014L11.7594 55.2228C9.40756 53.6144 7.59841 51.2911 6.69384 48.6104L2.35189 25.02C3.98012 25.02 5.42744 26.0923 5.78926 27.7007L9.40755 39.3172L9.22664 39.4959C8.86481 39.8534 8.86481 40.5682 9.22664 41.1044L14.2922 45.7509C15.7396 47.002 17.1869 48.6104 18.2724 50.0401C18.6342 50.5763 19.3579 50.5763 19.7197 50.2188C20.2624 49.8614 20.2624 49.1465 19.9006 48.7891C18.6342 47.1807 17.1869 45.5722 15.5586 44.1425L11.3976 40.3895C13.3877 39.3172 15.7396 39.4959 17.3678 41.1044L22.9761 46.6445C24.0616 47.7168 25.5089 48.6104 26.9563 49.1465L27.8608 49.504C32.2028 50.9337 35.2783 54.6867 36.002 59.1546L36.1829 61.8353C36.1829 62.7289 36.3638 63.4437 36.7256 64.3373L26.0517 72.3795L24.2425 65.2309C23.8807 63.8012 23.1571 62.7289 21.8907 62.014ZM11.0358 31.275L13.0258 37.5301C12.4831 37.7088 11.7594 37.7088 11.2167 38.0662L8.6839 29.4879C9.76938 29.6666 10.674 30.2028 11.0358 31.275ZM17.006 36.6365L17.5487 38.2449C16.8251 37.8875 16.1014 37.5301 15.3777 37.5301L14.2922 33.5983C15.5586 34.3132 16.6441 35.3855 17.006 36.6365ZM41.9722 61.1204C41.6103 60.9417 41.0676 60.9417 40.8867 61.2991L38.7157 62.9076C38.5348 62.5501 38.5348 62.1927 38.5348 61.6566L38.3539 58.9758C37.6302 53.6144 34.0119 49.3252 28.7654 47.5381L27.8608 47.1807C26.5944 46.8232 25.5089 46.1084 24.6044 45.2148L20.6243 41.1044L19.1769 36.1003C18.4533 33.5983 16.1014 31.6325 13.3877 31.275L13.2068 30.5602C12.4831 28.5943 10.3121 27.1646 7.96024 27.3433V27.1646C7.05567 24.1265 3.98012 22.3393 0.904573 23.2329C0.180915 23.2329 0 23.769 0 24.3052L4.70378 49.1465C5.78926 52.3634 7.77932 55.0441 10.674 57.01L20.8052 63.8012C21.5288 64.1586 22.0716 64.8734 22.2525 65.767L24.2425 73.8092L22.2525 75.4176C22.0716 75.5963 21.8907 75.9538 21.8907 76.3112V87.9277C21.8907 88.4638 22.4334 88.9999 22.9761 88.9999C23.1571 88.9999 23.338 88.9999 23.5189 88.8212L42.1531 76.6686C42.5149 76.4899 42.6958 76.1325 42.6958 75.775V62.1927C42.5149 61.6566 42.334 61.2991 41.9722 61.1204Z" fill="white"/>
<path d="M84.125 48.4317C83.2205 51.1124 81.4113 53.4357 79.0594 55.0441L68.9282 61.8353C67.6618 62.5502 66.7572 63.6225 66.3954 65.0522L64.7672 72.3795L53.9123 64.1586C54.2741 63.4437 54.455 62.5502 54.455 61.6566L54.636 58.9759C55.3596 54.508 58.4352 50.755 62.7771 49.3253L63.6817 48.9678C65.129 48.4317 66.5763 47.5381 67.6618 46.4658L73.2702 40.9257C74.8984 39.3172 77.2503 39.1385 79.2403 40.2108L75.0793 43.9638C73.4511 45.3935 72.0037 47.002 70.7373 48.6104C70.3755 49.1465 70.5564 49.6827 70.9183 50.0401C71.461 50.3976 72.0038 50.2188 72.3656 49.8614C73.632 48.253 74.8984 46.8233 76.3457 45.5722L81.4113 40.9257C81.7731 40.5682 81.954 39.8534 81.4113 39.4959L81.2304 39.3172L84.6678 27.7008C85.2105 26.0923 86.4769 25.02 88.1051 25.02L84.125 48.4317ZM66.9381 76.6686V85.7831L50.4749 75.0602V64.1586L52.1032 65.4096L66.9381 76.6686ZM73.9938 36.6365C74.3556 35.2068 75.4411 34.1345 76.8884 33.5984L75.622 37.5301C74.8984 37.7088 74.1747 37.8875 73.4511 38.2449L73.9938 36.6365ZM79.7831 31.2751C80.1449 30.2028 81.2304 29.6666 82.3159 29.6666L79.7831 38.2449C79.2403 38.0662 78.6976 37.8875 77.9739 37.7088L79.7831 31.2751ZM90.0952 23.0542C87.0197 22.3393 83.9441 24.1265 83.0395 26.9859V27.1646C80.6876 26.9859 78.5167 28.2369 77.793 30.3815L77.6121 31.0963C74.8984 31.4538 72.7274 33.2409 72.0037 35.9216L70.5564 40.7469L66.3954 44.8574C65.4908 45.751 64.4053 46.4658 63.1389 46.8233L62.2344 47.1807C57.1688 48.9678 53.3696 53.4357 52.6459 58.6184L52.465 61.6566C52.465 62.014 52.465 62.3714 52.2841 62.9076L50.1131 61.2992C49.5704 60.9417 49.0276 60.9417 48.6658 61.4779C48.4849 61.6566 48.4849 61.8353 48.4849 62.1927V75.7751C48.4849 76.1325 48.6658 76.4899 49.0276 76.6686L67.6618 88.8212C68.2045 89.1787 68.7473 89 69.1091 88.4638C69.29 88.2851 69.29 88.1064 69.29 87.9277V76.3112C69.29 75.9538 69.1091 75.5963 68.9282 75.4176L67.1191 73.9879L68.9282 65.767C69.1091 64.8735 69.6519 64.3373 70.3755 63.8012L80.5067 56.8313C83.2205 54.8654 85.3914 52.1847 86.4769 48.9678L91.1807 24.1265C90.9998 23.769 90.6379 23.2329 90.0952 23.0542Z" fill="white"/>
<path d="M76.346 62.3715L73.9941 64.1587C73.4514 64.5161 73.4514 65.231 73.8132 65.5884C74.175 66.1245 74.8987 66.1245 75.2605 65.7671L77.6124 63.9799C78.1552 63.6225 78.1552 62.9077 77.7933 62.5502C77.4315 62.1928 76.8888 62.0141 76.346 62.3715Z" fill="white"/>
<path d="M85.5728 55.4016L83.2209 57.1888C82.6782 57.5462 82.6782 58.2611 83.04 58.6185C83.4018 59.1546 84.1255 59.1546 84.4873 58.7972L86.8392 57.0101C87.382 56.6526 87.382 55.9378 87.0201 55.5803C86.8392 55.2229 86.1156 55.0442 85.5728 55.4016Z" fill="white"/>
<path d="M71.8228 65.7671L70.0137 67.1968C69.4709 67.5542 69.4709 68.2691 69.8327 68.6265C70.1946 69.1627 70.9182 69.1627 71.2801 68.8052L73.0892 67.3755C73.632 67.0181 73.6319 66.3032 73.2701 65.9458C72.9083 65.5884 72.1846 65.4097 71.8228 65.7671Z" fill="white"/>
<path d="M81.0499 58.7972L78.698 60.5844C78.1552 60.9418 78.1552 61.6567 78.5171 62.0141C78.8789 62.5503 79.6026 62.5503 79.9644 62.1928L82.3163 60.4057C82.859 60.0482 82.859 59.3334 82.4972 58.976C82.1353 58.6185 81.4117 58.4398 81.0499 58.7972Z" fill="white"/>
<path d="M24.9664 60.7631C25.3282 60.2269 25.1473 59.6908 24.6045 59.3333L17.9107 54.8655C17.368 54.508 16.8252 54.6867 16.4634 55.2229C16.1016 55.759 16.2825 56.2952 16.8252 56.6526L23.5191 61.1205C23.8809 61.4779 24.6045 61.2992 24.9664 60.7631Z" fill="white"/>
<path d="M15.3775 52.8997L14.4729 52.3635C13.9302 52.0061 13.3874 52.1848 13.0256 52.5422C12.6638 53.0784 12.8447 53.6145 13.2065 53.972L13.9302 54.5081C14.4729 54.8655 15.0157 54.6868 15.3775 54.1507C15.9202 53.972 15.7393 53.2571 15.3775 52.8997Z" fill="white"/>
</g>
<defs>
<clipPath id="clip0">
<rect width="91" height="89" fill="white"/>
</clipPath>
</defs>
</svg>
