<svg width="89" height="89" viewBox="0 0 89 89" fill="none" xmlns="http://www.w3.org/2000/svg">
<path d="M44.5996 74.2662H10.3535C6.17226 74.2662 2.98658 70.8814 2.98658 66.8993V3.18568H56.3468V46.1924C56.3468 46.9888 56.9441 47.5861 57.7405 47.5861C58.5369 47.5861 59.1342 46.9888 59.1342 46.1924V11.9463H63.7136V43.2058C63.7136 44.0022 64.311 44.5996 65.1074 44.5996C65.9038 44.5996 66.5011 44.0022 66.5011 43.2058V11.9463H70.8814V43.2058C70.8814 44.0022 71.4788 44.5996 72.2752 44.5996C73.0716 44.5996 73.6689 44.0022 73.6689 43.2058V10.3535C73.6689 9.55705 73.0716 8.95973 72.2752 8.95973H58.9351V1.39374C58.9351 0.597315 58.3378 0 57.5414 0H1.39374C0.597315 0 0 0.597315 0 1.39374V66.7002C0 72.4743 4.57942 77.0537 10.3535 77.0537H44.4004C45.1969 77.0537 45.7942 76.4564 45.7942 75.66C45.9933 74.8635 45.396 74.2662 44.5996 74.2662Z" fill="white"/>
<path d="M86.0135 71.2796H83.8233C83.226 71.2796 82.6287 71.6778 82.4296 72.2751C82.0314 73.4697 81.6332 74.4653 81.0359 75.4608C80.6376 76.0581 80.8368 76.8545 81.235 77.2527L82.6287 78.6465L78.4475 82.8277L77.0538 81.434C76.6555 81.0357 75.8591 80.8366 75.2618 81.2348C74.2663 81.8322 73.2708 82.2304 72.0761 82.6286C71.4788 82.8277 71.0806 83.425 71.0806 84.0223V86.2125H65.1075V84.0223C65.1075 83.425 64.7092 82.8277 64.1119 82.6286C62.9173 82.2304 61.9218 81.8322 60.9262 81.2348C60.3289 80.8366 59.5325 81.0357 59.1343 81.434L57.7406 83.0268L53.5594 78.8456L54.9531 77.4518C55.3513 77.0536 55.5504 76.2572 55.1522 75.6599C54.5549 74.6644 54.1567 73.6689 53.7585 72.4742C53.5594 71.8769 52.962 71.4787 52.3647 71.4787H50.1746V65.5055H52.3647C52.962 65.5055 53.5594 65.1073 53.7585 64.51C54.1567 63.3154 54.5549 62.3199 55.1522 61.3243C55.5504 60.727 55.3513 59.9306 54.9531 59.5324L53.5594 57.7404L57.7406 53.5592L59.1343 54.953C59.5325 55.3512 60.3289 55.5503 60.9262 55.1521C61.9218 54.5548 62.9173 54.1565 64.1119 53.7583C64.7092 53.5592 65.1075 52.9619 65.1075 52.3646V50.1744H71.0806V52.3646C71.0806 52.9619 71.4788 53.5592 72.0761 53.7583C73.2708 54.1565 74.2663 54.5548 75.2618 55.1521C75.8591 55.5503 76.6555 55.3512 77.0538 54.953L78.4475 53.5592L82.6287 57.7404L81.235 59.1342C80.8368 59.5324 80.6376 60.3288 81.0359 60.9261C81.6332 61.9216 82.0314 62.9172 82.4296 64.1118C82.6287 64.7091 83.226 65.1073 83.8233 65.1073H86.0135V71.2796ZM87.6063 62.3199H85.018C84.8189 61.7225 84.6198 61.1252 84.2215 60.5279L86.0135 58.736C86.6108 58.1386 86.6108 57.1431 86.0135 56.5458L79.6421 50.1744C79.0448 49.5771 78.0493 49.5771 77.452 50.1744L75.66 51.9664C75.0627 51.7673 74.4654 51.3691 73.8681 51.17V48.5816C73.8681 47.7852 73.2708 47.1879 72.4743 47.1879H63.7137C62.9173 47.1879 62.32 47.7852 62.32 48.5816V51.17C61.7227 51.3691 61.1253 51.5682 60.528 51.9664L58.7361 50.1744C58.1388 49.5771 57.1432 49.5771 56.5459 50.1744L50.1746 56.5458C49.5772 57.1431 49.5772 58.1386 50.1746 58.736L51.9665 60.5279C51.7674 61.1252 51.3692 61.7225 51.1701 62.3199H48.5817C47.7853 62.3199 47.188 62.9172 47.188 63.7136V72.6733C47.188 73.4697 47.7853 74.0671 48.5817 74.0671H51.1701C51.3692 74.6644 51.5683 75.2617 51.9665 75.859L50.3737 77.651C49.7764 78.2483 49.7764 79.2438 50.3737 79.8411L56.745 86.2125C57.3423 86.8098 58.3379 86.8098 58.9352 86.2125L60.7271 84.4205C61.3245 84.6196 61.9218 85.0178 62.5191 85.2169V87.6062C62.5191 88.4026 63.1164 88.9999 63.9128 88.9999H72.8725C73.669 88.9999 74.2663 88.4026 74.2663 87.6062V85.0178C74.8636 84.8187 75.4609 84.6196 76.0582 84.2214L77.8502 86.0134C78.4475 86.6107 79.443 86.6107 80.0403 86.0134L86.4117 79.642C87.009 79.0447 87.009 78.0492 86.4117 77.4518L84.6198 75.6599C84.8189 75.0626 85.2171 74.4653 85.4162 73.868H87.6063C88.4027 73.868 89.0001 73.2706 89.0001 72.4742V63.7136C89.0001 62.9172 88.4027 62.3199 87.6063 62.3199Z" fill="white"/>
<path d="M68.2929 75.6599C64.1117 75.6599 60.926 72.2751 60.926 68.293C60.926 64.1118 64.3108 60.9262 68.2929 60.9262C72.4741 60.9262 75.6598 64.3109 75.6598 68.293C75.6598 72.2751 72.275 75.6599 68.2929 75.6599ZM68.2929 57.9396C62.5189 57.9396 57.9395 62.519 57.9395 68.293C57.9395 74.0671 62.5189 78.6465 68.2929 78.6465C74.067 78.6465 78.6464 74.0671 78.6464 68.293C78.6464 62.519 74.067 57.9396 68.2929 57.9396Z" fill="white"/>
<path d="M48.9798 8.95972H31.2595C30.463 8.95972 29.8657 9.55703 29.8657 10.3535C29.8657 11.1499 30.463 11.7472 31.2595 11.7472H48.9798C49.7762 11.7472 50.3736 11.1499 50.3736 10.3535C50.3736 9.55703 49.7762 8.95972 48.9798 8.95972Z" fill="white"/>
<path d="M48.9798 17.7204H31.2595C30.463 17.7204 29.8657 18.3177 29.8657 19.1141C29.8657 19.9106 30.463 20.5079 31.2595 20.5079H48.9798C49.7762 20.5079 50.3736 19.9106 50.3736 19.1141C50.3736 18.5168 49.7762 17.7204 48.9798 17.7204Z" fill="white"/>
<path d="M48.9798 29.6667H31.2595C30.463 29.6667 29.8657 30.264 29.8657 31.0604C29.8657 31.8568 30.463 32.4542 31.2595 32.4542H48.9798C49.7762 32.4542 50.3736 31.8568 50.3736 31.0604C50.3736 30.264 49.7762 29.6667 48.9798 29.6667Z" fill="white"/>
<path d="M48.9798 38.6264H31.2595C30.463 38.6264 29.8657 39.2237 29.8657 40.0201C29.8657 40.8166 30.463 41.4139 31.2595 41.4139H48.9798C49.7762 41.4139 50.3736 40.8166 50.3736 40.0201C50.3736 39.2237 49.7762 38.6264 48.9798 38.6264Z" fill="white"/>
<path d="M45.9931 50.3737H31.0602C30.2638 50.3737 29.6665 50.971 29.6665 51.7674C29.6665 52.5638 30.2638 53.1611 31.0602 53.1611H45.9931C46.7895 53.1611 47.3869 52.5638 47.3869 51.7674C47.3869 51.1701 46.7895 50.3737 45.9931 50.3737Z" fill="white"/>
<path d="M43.0065 62.3199C43.803 62.3199 44.4003 61.7226 44.4003 60.9262C44.4003 60.1298 43.803 59.5325 43.0065 59.5325H31.0602C30.2638 59.5325 29.6665 60.1298 29.6665 60.9262C29.6665 61.7226 30.2638 62.3199 31.0602 62.3199H43.0065Z" fill="white"/>
<path d="M20.7069 20.7069H11.9463V11.9463H20.906V12.7427L17.7203 15.7293L15.7293 13.7382C15.132 13.1409 14.1364 13.1409 13.5391 13.7382C12.9418 14.3355 12.9418 15.1319 13.5391 15.7293L16.5257 18.7158C17.123 19.3132 18.1186 19.3132 18.7159 18.7158L20.7069 16.7248V20.7069ZM26.2819 9.3579C25.6845 8.76058 24.689 8.76058 24.0917 9.3579L23.6935 9.95521C23.4944 9.3579 22.8971 8.95969 22.2998 8.95969H10.3535C9.55703 8.95969 8.95972 9.557 8.95972 10.3534V22.2997C8.95972 23.0962 9.55703 23.6935 10.3535 23.6935H22.2998C23.0962 23.6935 23.6935 23.0962 23.6935 22.2997V13.9373L26.2819 11.349C26.8792 10.9507 26.8792 9.95521 26.2819 9.3579Z" fill="white"/>
<path d="M20.7068 41.613H11.9462V32.6532H20.9059V33.4497L17.9193 36.4362L15.9283 34.4452C15.331 33.8479 14.3354 33.8479 13.7381 34.4452C13.1408 35.0425 13.1408 35.8389 13.7381 36.4362L16.7247 39.4228C17.322 40.0201 18.3175 40.0201 18.9149 39.4228L20.9059 37.4318V41.613H20.7068ZM26.2817 30.0649C25.6844 29.4676 24.6889 29.4676 24.0916 30.0649L23.4943 30.6622C23.2952 30.0649 22.6979 29.6667 22.1005 29.6667H10.1542C9.35781 29.6667 8.7605 30.264 8.7605 31.0604V43.0067C8.7605 43.8031 9.35781 44.4004 10.1542 44.4004H22.1005C22.897 44.4004 23.4943 43.8031 23.4943 43.0067V34.6443L26.0826 32.0559C26.8791 31.6577 26.8791 30.6622 26.2817 30.0649Z" fill="white"/>
<path d="M20.7068 62.3199H11.9462V53.3602H20.9059V54.1566L17.9193 57.1432L15.9283 55.1521C15.331 54.5548 14.3354 54.5548 13.7381 55.1521C13.1408 55.7494 13.1408 56.5458 13.7381 57.1432L16.7247 60.1297C17.322 60.7271 18.3175 60.7271 18.9149 60.1297L20.9059 58.1387V62.3199H20.7068ZM24.0916 50.9709L23.4943 51.5682C23.2952 50.9709 22.6979 50.5727 22.1005 50.5727H10.1542C9.35781 50.5727 8.7605 51.17 8.7605 51.9664V63.9127C8.7605 64.7092 9.35781 65.3065 10.1542 65.3065H22.1005C22.897 65.3065 23.4943 64.7092 23.4943 63.9127V55.5503L26.0826 52.9619C26.68 52.3646 26.68 51.3691 26.0826 50.7718C25.6844 50.3736 24.6889 50.3736 24.0916 50.9709Z" fill="white"/>
</svg>
